  0
SECTION
  2
HEADER
  9
$ACADVER
  1
AC1014
  9
$HANDSEED
  5
FFFF
  9
$MEASUREMENT
 70
     1
  0
ENDSEC
  0
SECTION
  2
TABLES
  0
TABLE
  2
VPORT
  5
8
330
0
100
AcDbSymbolTable
 70
     4
  0
VPORT
  5
2E
330
8
100
AcDbSymbolTableRecord
100
AcDbViewportTableRecord
  2
*ACTIVE
 70
     0
 10
0.0
 20
0.0
 11
1.0
 21
1.0
 12
210.0
 22
148.5
 13
0.0
 23
0.0
 14
10.0
 24
10.0
 15
10.0
 25
10.0
 16
0.0
 26
0.0
 36
1.0
 17
0.0
 27
0.0
 37
0.0
 40
341.0
 41
1.24
 42
50.0
 43
0.0
 44
0.0
 50
0.0
 51
0.0
 71
     0
 72
   100
 73
     1
 74
     3
 75
     0
 76
     0
 77
     0
 78
     0
  0
ENDTAB
  0
TABLE
  2
LTYPE
  5
5
330
0
100
AcDbSymbolTable
 70
     1
  0
LTYPE
  5
14
330
5
100
AcDbSymbolTableRecord
100
AcDbLinetypeTableRecord
  2
BYBLOCK
 70
     0
  3

 72
    65
 73
     0
 40
0.0
  0
LTYPE
  5
15
330
5
100
AcDbSymbolTableRecord
100
AcDbLinetypeTableRecord
  2
BYLAYER
 70
     0
  3

 72
    65
 73
     0
 40
0.0
  0
LTYPE
  5
16
330
5
100
AcDbSymbolTableRecord
100
AcDbLinetypeTableRecord
  2
CONTINUOUS
 70
     0
  3
Solid line
 72
    65
 73
     0
 40
0.0
  0
ENDTAB
  0
TABLE
  2
LAYER
  5
2
100
AcDbSymbolTable
 70
1
  0
LAYER
  5
50
100
AcDbSymbolTableRecord
100
AcDbLayerTableRecord
  2
0
 70
0
  6
CONTINUOUS
  0
ENDTAB
  0
TABLE
  2
STYLE
  5
3
330
0
100
AcDbSymbolTable
 70
     1
  0
STYLE
  5
11
330
3
100
AcDbSymbolTableRecord
100
AcDbTextStyleTableRecord
  2
STANDARD
 70
     0
 40
0.0
 41
1.0
 50
0.0
 71
     0
 42
2.5
  3
txt
  4

  0
ENDTAB
  0
TABLE
  2
VIEW
  5
6
330
0
100
AcDbSymbolTable
 70
     0
  0
ENDTAB
  0
TABLE
  2
UCS
  5
7
330
0
100
AcDbSymbolTable
 70
     0
  0
ENDTAB
  0
TABLE
  2
APPID
  5
9
330
0
100
AcDbSymbolTable
 70
     2
  0
APPID
  5
12
330
9
100
AcDbSymbolTableRecord
100
AcDbRegAppTableRecord
  2
ACAD
 70
     0
  0
ENDTAB
  0
TABLE
  2
DIMSTYLE
  5
A
330
0
100
AcDbSymbolTable
 70
     1
  0
DIMSTYLE
105
27
330
A
100
AcDbSymbolTableRecord
100
AcDbDimStyleTableRecord
  2
ISO-25
 70
     0
  3

  4

  5

  6

  7

 40
1.0
 41
2.5
 42
0.625
 43
3.75
 44
1.25
 45
0.0
 46
0.0
 47
0.0
 48
0.0
140
2.5
141
2.5
142
0.0
143
0.03937007874016
144
1.0
145
0.0
146
1.0
147
0.625
 71
     0
 72
     0
 73
     0
 74
     0
 75
     0
 76
     0
 77
     1
 78
     8
170
     0
171
     3
172
     1
173
     0
174
     0
175
     0
176
     0
177
     0
178
     0
270
     2
271
     2
272
     2
273
     2
274
     3
340
11
275
     0
280
     0
281
     0
282
     0
283
     0
284
     8
285
     0
286
     0
287
     3
288
     0
  0
ENDTAB
  0
TABLE
  2
BLOCK_RECORD
  5
1
330
0
100
AcDbSymbolTable
 70
     1
  0
BLOCK_RECORD
  5
1F
330
1
100
AcDbSymbolTableRecord
100
AcDbBlockTableRecord
  2
*MODEL_SPACE
  0
BLOCK_RECORD
  5
1B
330
1
100
AcDbSymbolTableRecord
100
AcDbBlockTableRecord
  2
*PAPER_SPACE
  0
ENDTAB
  0
ENDSEC
  0
SECTION
  2
BLOCKS
  0
BLOCK
  5
20
330
1F
100
AcDbEntity
  8
0
100
AcDbBlockBegin
  2
*MODEL_SPACE
 70
     0
 10
0.0
 20
0.0
 30
0.0
  3
*MODEL_SPACE
  1

  0
ENDBLK
  5
21
330
1F
100
AcDbEntity
  8
0
100
AcDbBlockEnd
  0
BLOCK
  5
1C
330
1B
100
AcDbEntity
 67
     1
  8
0
100
AcDbBlockBegin
  2
*PAPER_SPACE
  1

  0
ENDBLK
  5
1D
330
1B
100
AcDbEntity
 67
     1
  8
0
100
AcDbBlockEnd
  0
ENDSEC
  0
SECTION
  2
ENTITIES
  0
LWPOLYLINE
  5
100
100
AcDbEntity
  8
0
 62
7
100
AcDbPolyline
 90
171
 70
0
 10
9.808240
 20
193.644135
 30
0.0
 10
11.838923
 20
198.529361
 30
0.0
 10
14.044580
 20
203.320512
 30
0.0
 10
16.421211
 20
208.013585
 30
0.0
 10
18.964814
 20
212.604581
 30
0.0
 10
21.671389
 20
217.089498
 30
0.0
 10
24.536934
 20
221.464335
 30
0.0
 10
27.557449
 20
225.725090
 30
0.0
 10
30.728932
 20
229.867764
 30
0.0
 10
34.047382
 20
233.888354
 30
0.0
 10
37.508799
 20
237.782860
 30
0.0
 10
41.109180
 20
241.547281
 30
0.0
 10
44.844526
 20
245.177615
 30
0.0
 10
48.710835
 20
248.669862
 30
0.0
 10
52.704106
 20
252.020021
 30
0.0
 10
56.820337
 20
255.224090
 30
0.0
 10
61.055529
 20
258.278069
 30
0.0
 10
65.405680
 20
261.177956
 30
0.0
 10
69.866788
 20
263.919750
 30
0.0
 10
74.434853
 20
266.499451
 30
0.0
 10
79.105874
 20
268.913057
 30
0.0
 10
83.875849
 20
271.156567
 30
0.0
 10
88.740778
 20
273.225981
 30
0.0
 10
93.696659
 20
275.117296
 30
0.0
 10
98.739492
 20
276.826513
 30
0.0
 10
103.865275
 20
278.349629
 30
0.0
 10
109.070008
 20
279.682645
 30
0.0
 10
114.349688
 20
280.821558
 30
0.0
 10
119.700317
 20
281.762369
 30
0.0
 10
125.117891
 20
282.501075
 30
0.0
 10
130.598410
 20
283.033676
 30
0.0
 10
136.137874
 20
283.356171
 30
0.0
 10
141.732280
 20
283.464558
 30
0.0
 10
147.396882
 20
283.353429
 30
0.0
 10
153.005095
 20
283.022810
 30
0.0
 10
158.552765
 20
282.476858
 30
0.0
 10
164.035737
 20
281.719725
 30
0.0
 10
169.449858
 20
280.755566
 30
0.0
 10
174.790972
 20
279.588535
 30
0.0
 10
180.054925
 20
278.222787
 30
0.0
 10
185.237564
 20
276.662476
 30
0.0
 10
190.334734
 20
274.911756
 30
0.0
 10
195.342280
 20
272.974782
 30
0.0
 10
200.256048
 20
270.855708
 30
0.0
 10
205.071884
 20
268.558688
 30
0.0
 10
209.785634
 20
266.087876
 30
0.0
 10
214.393143
 20
263.447428
 30
0.0
 10
218.890257
 20
260.641496
 30
0.0
 10
223.272822
 20
257.674236
 30
0.0
 10
227.536683
 20
254.549802
 30
0.0
 10
231.677686
 20
251.272348
 30
0.0
 10
235.691677
 20
247.846029
 30
0.0
 10
239.574501
 20
244.274998
 30
0.0
 10
243.322004
 20
240.563411
 30
0.0
 10
246.930032
 20
236.715421
 30
0.0
 10
250.394430
 20
232.735182
 30
0.0
 10
253.711045
 20
228.626850
 30
0.0
 10
256.875721
 20
224.394578
 30
0.0
 10
259.884305
 20
220.042521
 30
0.0
 10
262.732642
 20
215.574832
 30
0.0
 10
265.416578
 20
210.995667
 30
0.0
 10
267.931959
 20
206.309180
 30
0.0
 10
270.274629
 20
201.519525
 30
0.0
 10
272.440436
 20
196.630855
 30
0.0
 10
274.425224
 20
191.647327
 30
0.0
 10
274.425224
 20
191.647327
 30
0.0
 10
221.776048
 20
191.647327
 30
0.0
 10
217.402630
 20
191.506991
 30
0.0
 10
212.873564
 20
191.094531
 30
0.0
 10
208.221406
 20
190.422765
 30
0.0
 10
203.478713
 20
189.504516
 30
0.0
 10
198.678042
 20
188.352603
 30
0.0
 10
193.851950
 20
186.979846
 30
0.0
 10
189.032995
 20
185.399065
 30
0.0
 10
184.253733
 20
183.623082
 30
0.0
 10
179.546721
 20
181.664716
 30
0.0
 10
174.944517
 20
179.536787
 30
0.0
 10
170.479676
 20
177.252116
 30
0.0
 10
166.184757
 20
174.823522
 30
0.0
 10
162.092316
 20
172.263827
 30
0.0
 10
158.234910
 20
169.585851
 30
0.0
 10
154.645096
 20
166.802413
 30
0.0
 10
151.355432
 20
163.926335
 30
0.0
 10
126.591736
 20
140.829583
 30
0.0
 10
124.038052
 20
138.608067
 30
0.0
 10
121.211315
 20
136.441243
 30
0.0
 10
118.142595
 20
134.341339
 30
0.0
 10
114.862963
 20
132.320585
 30
0.0
 10
111.403490
 20
130.391212
 30
0.0
 10
107.795249
 20
128.565448
 30
0.0
 10
104.069309
 20
126.855525
 30
0.0
 10
100.256743
 20
125.273670
 30
0.0
 10
96.388621
 20
123.832114
 30
0.0
 10
92.496014
 20
122.543088
 30
0.0
 10
88.609995
 20
121.418819
 30
0.0
 10
84.761633
 20
120.471539
 30
0.0
 10
80.982000
 20
119.713477
 30
0.0
 10
77.302168
 20
119.156862
 30
0.0
 10
73.753207
 20
118.813925
 30
0.0
 10
70.366190
 20
118.696895
 30
0.0
 10
1.862495
 20
118.696895
 30
0.0
 10
1.054534
 20
124.355973
 30
0.0
 10
0.471740
 20
130.084623
 30
0.0
 10
0.118699
 20
135.878253
 30
0.0
 10
0.000000
 20
141.732271
 30
0.0
 10
0.221211
 20
149.718417
 30
0.0
 10
0.877035
 20
157.588604
 30
0.0
 10
1.955759
 20
165.331125
 30
0.0
 10
3.445671
 20
172.934271
 30
0.0
 10
53.539098
 20
172.934271
 30
0.0
 10
54.174489
 20
171.062415
 30
0.0
 10
54.953741
 20
169.261670
 30
0.0
 10
55.869979
 20
167.538887
 30
0.0
 10
56.916329
 20
165.900918
 30
0.0
 10
58.085916
 20
164.354613
 30
0.0
 10
59.371867
 20
162.906825
 30
0.0
 10
60.767307
 20
161.564405
 30
0.0
 10
62.265362
 20
160.334204
 30
0.0
 10
63.859157
 20
159.223073
 30
0.0
 10
65.541820
 20
158.237864
 30
0.0
 10
67.306474
 20
157.385429
 30
0.0
 10
69.146247
 20
156.672618
 30
0.0
 10
71.054264
 20
156.106282
 30
0.0
 10
73.023650
 20
155.693275
 30
0.0
 10
75.047532
 20
155.440446
 30
0.0
 10
77.119035
 20
155.354647
 30
0.0
 10
79.631366
 20
155.481089
 30
0.0
 10
82.071124
 20
155.852207
 30
0.0
 10
84.425957
 20
156.455692
 30
0.0
 10
86.683516
 20
157.279233
 30
0.0
 10
88.831447
 20
158.310520
 30
0.0
 10
90.857401
 20
159.537242
 30
0.0
 10
92.749026
 20
160.947089
 30
0.0
 10
94.493970
 20
162.527752
 30
0.0
 10
96.079884
 20
164.266919
 30
0.0
 10
97.494415
 20
166.152281
 30
0.0
 10
98.725212
 20
168.171527
 30
0.0
 10
99.759925
 20
170.312347
 30
0.0
 10
100.586201
 20
172.562430
 30
0.0
 10
101.191691
 20
174.909467
 30
0.0
 10
101.564042
 20
177.341146
 30
0.0
 10
101.690904
 20
179.845159
 30
0.0
 10
101.564042
 20
182.349173
 30
0.0
 10
101.191691
 20
184.780853
 30
0.0
 10
100.586201
 20
187.127889
 30
0.0
 10
99.759925
 20
189.377972
 30
0.0
 10
98.725212
 20
191.518790
 30
0.0
 10
97.494415
 20
193.538034
 30
0.0
 10
96.079884
 20
195.423394
 30
0.0
 10
94.493970
 20
197.162559
 30
0.0
 10
92.749026
 20
198.743219
 30
0.0
 10
90.857401
 20
200.153064
 30
0.0
 10
88.831447
 20
201.379785
 30
0.0
 10
86.683516
 20
202.411069
 30
0.0
 10
84.425957
 20
203.234608
 30
0.0
 10
82.071124
 20
203.838092
 30
0.0
 10
79.631366
 20
204.209209
 30
0.0
 10
77.119035
 20
204.335651
 30
0.0
 10
74.006201
 20
204.141001
 30
0.0
 10
71.010175
 20
203.572819
 30
0.0
 10
68.154688
 20
202.654759
 30
0.0
 10
65.463474
 20
201.410473
 30
0.0
 10
62.960262
 20
199.863615
 30
0.0
 10
60.668787
 20
198.037837
 30
0.0
 10
58.612779
 20
195.956793
 30
0.0
 10
56.815971
 20
193.644135
 30
0.0
 10
55.054927
 20
193.644135
 30
0.0
 10
9.808240
 20
193.644135
 30
0.0
 10
9.808240
 20
193.644135
 30
0.0
 10
9.808240
 20
193.644135
 30
0.0
 10
9.808240
 20
193.644135
 30
0.0
  0
LWPOLYLINE
  5
101
100
AcDbEntity
  8
0
 62
7
100
AcDbPolyline
 90
188
 70
0
 10
51.924047
 20
32.079591
 30
0.0
 10
56.587239
 20
28.415523
 30
0.0
 10
61.404523
 20
24.945218
 30
0.0
 10
66.370017
 20
21.674559
 30
0.0
 10
71.477839
 20
18.609427
 30
0.0
 10
76.722108
 20
15.755705
 30
0.0
 10
82.096941
 20
13.119273
 30
0.0
 10
87.596457
 20
10.706015
 30
0.0
 10
93.214773
 20
8.521812
 30
0.0
 10
98.946007
 20
6.572546
 30
0.0
 10
104.784278
 20
4.864098
 30
0.0
 10
110.723703
 20
3.402351
 30
0.0
 10
116.758401
 20
2.193186
 30
0.0
 10
122.882490
 20
1.242486
 30
0.0
 10
129.090087
 20
0.556132
 30
0.0
 10
135.375311
 20
0.140007
 30
0.0
 10
141.732280
 20
-0.000009
 30
0.0
 10
149.025803
 20
0.184412
 30
0.0
 10
156.223580
 20
0.731739
 30
0.0
 10
163.316705
 20
1.633066
 30
0.0
 10
170.296273
 20
2.879488
 30
0.0
 10
177.153380
 20
4.462100
 30
0.0
 10
183.879119
 20
6.371996
 30
0.0
 10
190.464585
 20
8.600271
 30
0.0
 10
196.900874
 20
11.138020
 30
0.0
 10
203.179079
 20
13.976337
 30
0.0
 10
209.290295
 20
17.106317
 30
0.0
 10
215.225618
 20
20.519055
 30
0.0
 10
220.976141
 20
24.205645
 30
0.0
 10
226.532959
 20
28.157182
 30
0.0
 10
231.887168
 20
32.364761
 30
0.0
 10
237.029861
 20
36.819477
 30
0.0
 10
241.952134
 20
41.512424
 30
0.0
 10
246.645081
 20
46.434697
 30
0.0
 10
251.099797
 20
51.577390
 30
0.0
 10
255.307376
 20
56.931598
 30
0.0
 10
259.258914
 20
62.488416
 30
0.0
 10
262.945504
 20
68.238939
 30
0.0
 10
266.358242
 20
74.174261
 30
0.0
 10
269.488222
 20
80.285477
 30
0.0
 10
272.326539
 20
86.563682
 30
0.0
 10
274.864288
 20
92.999970
 30
0.0
 10
277.092563
 20
99.585436
 30
0.0
 10
279.002459
 20
106.311174
 30
0.0
 10
280.585071
 20
113.168280
 30
0.0
 10
281.831493
 20
120.147848
 30
0.0
 10
282.732820
 20
127.240973
 30
0.0
 10
283.280147
 20
134.438749
 30
0.0
 10
283.464568
 20
141.732271
 30
0.0
 10
283.271534
 20
149.193796
 30
0.0
 10
282.698788
 20
156.554862
 30
0.0
 10
281.755866
 20
163.805929
 30
0.0
 10
280.452304
 20
170.937455
 30
0.0
 10
280.452304
 20
170.937455
 30
0.0
 10
221.776048
 20
170.937455
 30
0.0
 10
218.388734
 20
170.820434
 30
0.0
 10
214.839632
 20
170.477523
 30
0.0
 10
211.159791
 20
169.920946
 30
0.0
 10
207.380263
 20
169.162931
 30
0.0
 10
203.532099
 20
168.215703
 30
0.0
 10
199.646350
 20
167.091488
 30
0.0
 10
195.754068
 20
165.802513
 30
0.0
 10
191.886303
 20
164.361002
 30
0.0
 10
188.074107
 20
162.779182
 30
0.0
 10
184.348530
 20
161.069280
 30
0.0
 10
180.740624
 20
159.243520
 30
0.0
 10
177.281440
 20
157.314129
 30
0.0
 10
174.002028
 20
155.293333
 30
0.0
 10
170.933441
 20
153.193358
 30
0.0
 10
168.106730
 20
151.026430
 30
0.0
 10
165.552944
 20
148.804775
 30
0.0
 10
140.789256
 20
125.708023
 30
0.0
 10
137.499650
 20
122.832047
 30
0.0
 10
133.909772
 20
120.048686
 30
0.0
 10
130.052197
 20
117.370762
 30
0.0
 10
125.959505
 20
114.811099
 30
0.0
 10
121.664272
 20
112.382519
 30
0.0
 10
117.199075
 20
110.097845
 30
0.0
 10
112.596494
 20
107.969901
 30
0.0
 10
107.889104
 20
106.011510
 30
0.0
 10
103.109483
 20
104.235494
 30
0.0
 10
98.290209
 20
102.654677
 30
0.0
 10
93.463860
 20
101.281881
 30
0.0
 10
88.663012
 20
100.129930
 30
0.0
 10
83.920244
 20
99.211646
 30
0.0
 10
79.268132
 20
98.539853
 30
0.0
 10
74.739255
 20
98.127374
 30
0.0
 10
70.366190
 20
97.987031
 30
0.0
 10
6.879634
 20
97.987031
 30
0.0
 10
9.039138
 20
91.817823
 30
0.0
 10
11.471348
 20
85.782195
 30
0.0
 10
14.168838
 20
79.887572
 30
0.0
 10
17.124184
 20
74.141379
 30
0.0
 10
20.329962
 20
68.551040
 30
0.0
 10
23.778747
 20
63.123981
 30
0.0
 10
27.463114
 20
57.867625
 30
0.0
 10
31.375638
 20
52.789399
 30
0.0
 10
115.706280
 20
52.789455
 30
0.0
 10
117.957629
 20
52.868814
 30
0.0
 10
120.324463
 20
53.101177
 30
0.0
 10
122.785010
 20
53.477973
 30
0.0
 10
125.317496
 20
53.990630
 30
0.0
 10
130.511187
 20
55.389241
 30
0.0
 10
135.731346
 20
57.228440
 30
0.0
 10
140.803783
 20
59.439654
 30
0.0
 10
145.554308
 20
61.954311
 30
0.0
 10
147.754418
 20
63.304003
 30
0.0
 10
149.808729
 20
64.703841
 30
0.0
 10
151.695466
 20
66.145254
 30
0.0
 10
153.392856
 20
67.619671
 30
0.0
 10
189.257000
 20
101.069623
 30
0.0
 10
188.727912
 20
102.910082
 30
0.0
 10
188.342374
 20
104.806648
 30
0.0
 10
188.106539
 20
106.753189
 30
0.0
 10
188.026560
 20
108.743575
 30
0.0
 10
188.153422
 20
111.247588
 30
0.0
 10
188.525773
 20
113.679268
 30
0.0
 10
189.131263
 20
116.026305
 30
0.0
 10
189.957539
 20
118.276389
 30
0.0
 10
190.992252
 20
120.417209
 30
0.0
 10
192.223049
 20
122.436455
 30
0.0
 10
193.637580
 20
124.321818
 30
0.0
 10
195.223493
 20
126.060986
 30
0.0
 10
196.968437
 20
127.641649
 30
0.0
 10
198.860062
 20
129.051498
 30
0.0
 10
200.886015
 20
130.278220
 30
0.0
 10
203.033946
 20
131.309508
 30
0.0
 10
205.291504
 20
132.133049
 30
0.0
 10
207.646337
 20
132.736534
 30
0.0
 10
210.086094
 20
133.107653
 30
0.0
 10
212.598424
 20
133.234095
 30
0.0
 10
215.110755
 20
133.107653
 30
0.0
 10
217.550514
 20
132.736534
 30
0.0
 10
219.905348
 20
132.133049
 30
0.0
 10
222.162906
 20
131.309508
 30
0.0
 10
224.310838
 20
130.278220
 30
0.0
 10
226.336792
 20
129.051498
 30
0.0
 10
228.228417
 20
127.641649
 30
0.0
 10
229.973362
 20
126.060986
 30
0.0
 10
231.559276
 20
124.321818
 30
0.0
 10
232.973807
 20
122.436455
 30
0.0
 10
234.204604
 20
120.417209
 30
0.0
 10
235.239317
 20
118.276389
 30
0.0
 10
236.065593
 20
116.026305
 30
0.0
 10
236.671083
 20
113.679268
 30
0.0
 10
237.043434
 20
111.247588
 30
0.0
 10
237.170296
 20
108.743575
 30
0.0
 10
237.043434
 20
106.239562
 30
0.0
 10
236.671083
 20
103.807882
 30
0.0
 10
236.065593
 20
101.460845
 30
0.0
 10
235.239317
 20
99.210761
 30
0.0
 10
234.204604
 20
97.069941
 30
0.0
 10
232.973807
 20
95.050694
 30
0.0
 10
231.559276
 20
93.165332
 30
0.0
 10
229.973362
 20
91.426164
 30
0.0
 10
228.228417
 20
89.845501
 30
0.0
 10
226.336792
 20
88.435652
 30
0.0
 10
224.310838
 20
87.208929
 30
0.0
 10
222.162906
 20
86.177642
 30
0.0
 10
219.905348
 20
85.354101
 30
0.0
 10
217.550514
 20
84.750615
 30
0.0
 10
215.110755
 20
84.379497
 30
0.0
 10
212.598424
 20
84.253055
 30
0.0
 10
210.215698
 20
84.366728
 30
0.0
 10
207.897582
 20
84.700754
 30
0.0
 10
205.654589
 20
85.244647
 30
0.0
 10
203.497232
 20
85.987919
 30
0.0
 10
167.590376
 20
52.498143
 30
0.0
 10
165.157002
 20
50.369209
 30
0.0
 10
162.507067
 20
48.311216
 30
0.0
 10
159.663852
 20
46.333328
 30
0.0
 10
156.650637
 20
44.444707
 30
0.0
 10
153.490704
 20
42.654517
 30
0.0
 10
150.207332
 20
40.971921
 30
0.0
 10
146.823803
 20
39.406084
 30
0.0
 10
143.363398
 20
37.966167
 30
0.0
 10
139.849397
 20
36.661335
 30
0.0
 10
136.305080
 20
35.500750
 30
0.0
 10
132.753729
 20
34.493576
 30
0.0
 10
129.218624
 20
33.648977
 30
0.0
 10
125.723046
 20
32.976116
 30
0.0
 10
122.290275
 20
32.484155
 30
0.0
 10
118.943593
 20
32.182259
 30
0.0
 10
115.706280
 20
32.079591
 30
0.0
 10
51.924047
 20
32.079591
 30
0.0
 10
51.924047
 20
32.079591
 30
0.0
 10
51.924047
 20
32.079591
 30
0.0
 10
51.924047
 20
32.079591
 30
0.0
  0
LWPOLYLINE
  5
102
100
AcDbEntity
  8
0
 62
7
100
AcDbPolyline
 90
35
 70
0
 10
211.875760
 20
100.134447
 30
0.0
 10
213.472450
 20
100.295941
 30
0.0
 10
214.959612
 20
100.759114
 30
0.0
 10
216.305386
 20
101.492001
 30
0.0
 10
217.477915
 20
102.462638
 30
0.0
 10
218.445339
 20
103.639059
 30
0.0
 10
219.175801
 20
104.989300
 30
0.0
 10
219.637440
 20
106.481396
 30
0.0
 10
219.798400
 20
108.083383
 30
0.0
 10
219.637440
 20
109.685381
 30
0.0
 10
219.175801
 20
111.177486
 30
0.0
 10
218.445339
 20
112.527734
 30
0.0
 10
217.477915
 20
113.704160
 30
0.0
 10
216.305386
 20
114.674800
 30
0.0
 10
214.959612
 20
115.407690
 30
0.0
 10
213.472450
 20
115.870864
 30
0.0
 10
211.875760
 20
116.032359
 30
0.0
 10
210.279080
 20
115.870864
 30
0.0
 10
208.791927
 20
115.407690
 30
0.0
 10
207.446158
 20
114.674800
 30
0.0
 10
206.273633
 20
113.704160
 30
0.0
 10
205.306211
 20
112.527734
 30
0.0
 10
204.575751
 20
111.177486
 30
0.0
 10
204.114112
 20
109.685381
 30
0.0
 10
203.953152
 20
108.083383
 30
0.0
 10
204.114112
 20
106.481396
 30
0.0
 10
204.575751
 20
104.989300
 30
0.0
 10
205.306211
 20
103.639059
 30
0.0
 10
206.273633
 20
102.462638
 30
0.0
 10
207.446158
 20
101.492001
 30
0.0
 10
208.791927
 20
100.759114
 30
0.0
 10
210.279080
 20
100.295941
 30
0.0
 10
211.875760
 20
100.134447
 30
0.0
 10
211.875760
 20
100.134447
 30
0.0
 10
211.875760
 20
100.134447
 30
0.0
  0
LWPOLYLINE
  5
103
100
AcDbEntity
  8
0
 62
7
100
AcDbPolyline
 90
35
 70
0
 10
76.571337
 20
170.781919
 30
0.0
 10
78.168021
 20
170.943414
 30
0.0
 10
79.655178
 20
171.406588
 30
0.0
 10
81.000948
 20
172.139476
 30
0.0
 10
82.173473
 20
173.110114
 30
0.0
 10
83.140895
 20
174.286537
 30
0.0
 10
83.871354
 20
175.636779
 30
0.0
 10
84.332993
 20
177.128876
 30
0.0
 10
84.493952
 20
178.730863
 30
0.0
 10
84.332993
 20
180.332850
 30
0.0
 10
83.871354
 20
181.824947
 30
0.0
 10
83.140895
 20
183.175189
 30
0.0
 10
82.173473
 20
184.351612
 30
0.0
 10
81.000948
 20
185.322250
 30
0.0
 10
79.655178
 20
186.055138
 30
0.0
 10
78.168021
 20
186.518312
 30
0.0
 10
76.571337
 20
186.679807
 30
0.0
 10
74.974654
 20
186.518312
 30
0.0
 10
73.487498
 20
186.055138
 30
0.0
 10
72.141728
 20
185.322250
 30
0.0
 10
70.969203
 20
184.351612
 30
0.0
 10
70.001781
 20
183.175189
 30
0.0
 10
69.271321
 20
181.824947
 30
0.0
 10
68.809683
 20
180.332850
 30
0.0
 10
68.648723
 20
178.730863
 30
0.0
 10
68.809683
 20
177.128876
 30
0.0
 10
69.271321
 20
175.636779
 30
0.0
 10
70.001781
 20
174.286537
 30
0.0
 10
70.969203
 20
173.110114
 30
0.0
 10
72.141728
 20
172.139476
 30
0.0
 10
73.487498
 20
171.406588
 30
0.0
 10
74.974654
 20
170.943414
 30
0.0
 10
76.571337
 20
170.781919
 30
0.0
 10
76.571337
 20
170.781919
 30
0.0
 10
76.571337
 20
170.781919
 30
0.0
  0
ENDSEC
  0
SECTION
  2
OBJECTS
  0
DICTIONARY
  5
C
330
0
100
AcDbDictionary
  3
ACAD_GROUP
350
D
  3
ACAD_MLINESTYLE
350
17
  0
DICTIONARY
  5
D
330
C
100
AcDbDictionary
  0
DICTIONARY
  5
1A
330
C
100
AcDbDictionary
  0
DICTIONARY
  5
17
330
C
100
AcDbDictionary
  3
STANDARD
350
18
  0
DICTIONARY
  5
19
330
C
100
AcDbDictionary
  0
ENDSEC
  0
EOF
